<svg xmlns="http://www.w3.org/2000/svg" xmlns:xlink="http://www.w3.org/1999/xlink" width="500" zoomAndPan="magnify" viewBox="0 0 375 374.999991" height="500" preserveAspectRatio="xMidYMid meet" version="1.0"><defs><clipPath id="4ddb3264c6"><path d="M 84 65.9375 L 208 65.9375 L 208 123 L 84 123 Z M 84 65.9375 " clip-rule="nonzero"/></clipPath><clipPath id="2e0ee05f9b"><path d="M 65.9375 67 L 308.9375 67 L 308.9375 308.9375 L 65.9375 308.9375 Z M 65.9375 67 " clip-rule="nonzero"/></clipPath><clipPath id="1dbc06a750"><path d="M 108 48 L 282 48 L 282 257 L 108 257 Z M 108 48 " clip-rule="nonzero"/></clipPath><clipPath id="f49cbb3bdd"><path d="M 118.144531 38.660156 L 292.890625 61.625 L 256.832031 336.015625 L 82.082031 313.050781 Z M 118.144531 38.660156 " clip-rule="nonzero"/></clipPath><clipPath id="0a65a23fa2"><path d="M 118.144531 38.660156 L 292.890625 61.625 L 256.832031 336.015625 L 82.082031 313.050781 Z M 118.144531 38.660156 " clip-rule="nonzero"/></clipPath><clipPath id="1f750e31ab"><path d="M 118.144531 38.660156 L 292.890625 61.625 L 256.832031 336.015625 L 82.082031 313.050781 Z M 118.144531 38.660156 " clip-rule="nonzero"/></clipPath><clipPath id="5dbf10b3c9"><path d="M 135 272 L 186 272 L 186 324 L 135 324 Z M 135 272 " clip-rule="nonzero"/></clipPath><clipPath id="58bcb85173"><path d="M 118.144531 38.660156 L 292.890625 61.625 L 256.832031 336.015625 L 82.082031 313.050781 Z M 118.144531 38.660156 " clip-rule="nonzero"/></clipPath><clipPath id="74316398f1"><path d="M 118.144531 38.660156 L 292.890625 61.625 L 256.832031 336.015625 L 82.082031 313.050781 Z M 118.144531 38.660156 " clip-rule="nonzero"/></clipPath><clipPath id="4b0a045e49"><path d="M 118.144531 38.660156 L 292.890625 61.625 L 256.832031 336.015625 L 82.082031 313.050781 Z M 118.144531 38.660156 " clip-rule="nonzero"/></clipPath></defs><path fill="#4d4d4d" d="M 178.511719 184.980469 C 178.511719 182.183594 176.234375 179.90625 173.4375 179.90625 C 170.640625 179.90625 168.363281 182.183594 168.363281 184.980469 C 168.363281 187.777344 170.640625 190.054688 173.4375 190.054688 C 176.234375 190.054688 178.511719 187.777344 178.511719 184.980469 Z M 178.511719 184.980469 " fill-opacity="1" fill-rule="nonzero"/><path fill="#4d4d4d" d="M 188.160156 177.808594 C 190.953125 177.808594 193.234375 175.527344 193.234375 172.730469 C 193.234375 169.9375 190.953125 167.660156 188.160156 167.660156 C 185.363281 167.660156 183.085938 169.9375 183.085938 172.730469 C 183.085938 175.527344 185.363281 177.808594 188.160156 177.808594 Z M 188.160156 177.808594 " fill-opacity="1" fill-rule="nonzero"/><path fill="#4d4d4d" d="M 201.578125 190.054688 C 204.375 190.054688 206.652344 187.777344 206.652344 184.980469 C 206.652344 182.183594 204.375 179.90625 201.578125 179.90625 C 198.78125 179.90625 196.503906 182.183594 196.503906 184.980469 C 196.503906 187.777344 198.78125 190.054688 201.578125 190.054688 Z M 201.578125 190.054688 " fill-opacity="1" fill-rule="nonzero"/><path fill="#4d4d4d" d="M 179.457031 194.261719 C 176.660156 194.261719 174.382812 196.539062 174.382812 199.335938 C 174.382812 202.136719 176.660156 204.410156 179.457031 204.410156 C 182.253906 204.410156 184.527344 202.136719 184.527344 199.335938 C 184.527344 196.539062 182.253906 194.261719 179.457031 194.261719 Z M 179.457031 194.261719 " fill-opacity="1" fill-rule="nonzero"/><path fill="#4d4d4d" d="M 195.757812 194.261719 C 192.960938 194.261719 190.683594 196.539062 190.683594 199.335938 C 190.683594 202.136719 192.960938 204.410156 195.757812 204.410156 C 198.554688 204.410156 200.832031 202.136719 200.832031 199.335938 C 200.832031 196.539062 198.554688 194.261719 195.757812 194.261719 Z M 195.757812 194.261719 " fill-opacity="1" fill-rule="nonzero"/><path fill="#808080" d="M 187.4375 273.121094 C 234.683594 273.121094 273.121094 234.683594 273.121094 187.4375 C 273.121094 140.191406 234.683594 101.753906 187.4375 101.753906 C 140.1875 101.753906 101.753906 140.191406 101.753906 187.4375 C 101.753906 234.683594 140.1875 273.121094 187.4375 273.121094 Z M 111.765625 177.261719 C 111.941406 177.335938 112.105469 177.417969 112.296875 177.472656 C 112.515625 177.535156 112.742188 177.570312 112.964844 177.613281 C 113.375 177.726562 113.804688 177.808594 114.246094 177.808594 L 114.5625 177.808594 C 114.738281 177.808594 114.90625 177.773438 115.082031 177.753906 C 115.066406 177.847656 115.046875 177.9375 115.035156 178.035156 C 125.40625 179.1875 135.46875 183.160156 145.164062 186.84375 C 150.609375 188.910156 156.976562 190.5625 162.398438 193.21875 C 161.964844 191.359375 161.714844 189.429688 161.714844 187.4375 C 161.714844 182.71875 163.015625 178.304688 165.242188 174.5 C 150.398438 170.976562 132.539062 168.679688 119.605469 160.429688 C 119.574219 160.496094 119.550781 160.566406 119.527344 160.632812 C 119.230469 160.476562 118.910156 160.347656 118.566406 160.253906 C 117.851562 159.878906 117.105469 159.640625 116.332031 159.601562 C 126.605469 133.46875 150.890625 114.324219 179.894531 111.464844 L 179.894531 111.699219 C 179.800781 112.074219 179.738281 112.464844 179.738281 112.863281 C 179.738281 113.570312 179.796875 114.269531 179.886719 114.972656 C 180.640625 124.777344 179.269531 135.148438 179.203125 145 C 179.167969 150.863281 179.71875 157.335938 178.8125 163.238281 C 181.511719 162.273438 184.410156 161.71875 187.4375 161.71875 C 191.453125 161.71875 195.238281 162.671875 198.625 164.316406 C 197.21875 160.519531 197.785156 151.367188 197.710938 149.851562 C 197.144531 138.617188 195.730469 126.335938 197.453125 115.117188 C 197.328125 115.097656 197.207031 115.085938 197.082031 115.078125 C 197.058594 114.511719 197.03125 113.953125 196.972656 113.394531 C 197.042969 112.84375 197.113281 112.257812 197.128906 111.847656 C 197.132812 111.800781 197.121094 111.757812 197.121094 111.710938 C 225.886719 115.371094 249.6875 135.089844 259.261719 161.5625 C 259.082031 161.632812 258.902344 161.703125 258.722656 161.769531 C 257.78125 162.113281 256.964844 162.648438 256.339844 163.339844 C 256.308594 163.257812 256.289062 163.179688 256.261719 163.101562 C 249 166.042969 240.753906 167.53125 233.234375 169.644531 C 225.640625 171.769531 217.996094 174.257812 210.195312 175.5 C 212.074219 179.074219 213.152344 183.128906 213.152344 187.4375 C 213.152344 191.21875 212.3125 194.796875 210.839844 198.03125 C 226.011719 190.5625 243.023438 185.605469 259.066406 180.144531 C 259.667969 180.214844 260.292969 180.203125 260.921875 180.113281 C 261.765625 179.988281 262.574219 179.773438 263.375 179.53125 C 263.644531 182.132812 263.796875 184.765625 263.796875 187.4375 C 263.796875 210.175781 253.792969 230.613281 237.972656 244.609375 C 237.503906 243.90625 236.886719 243.332031 236.164062 242.949219 C 235.902344 242.472656 235.628906 242.007812 235.339844 241.550781 C 235.140625 241.242188 234.925781 240.964844 234.6875 240.722656 C 226.226562 227.667969 217.078125 215.15625 208.421875 202.253906 C 204.550781 207.71875 198.609375 211.597656 191.746094 212.761719 C 196.496094 217.753906 200.222656 223.972656 204.230469 229.519531 C 209.753906 237.167969 215.3125 244.824219 221.347656 252.078125 C 221.40625 252.050781 221.457031 252.011719 221.515625 251.984375 C 222.007812 252.976562 222.617188 253.910156 223.308594 254.820312 C 212.605469 260.542969 200.394531 263.792969 187.4375 263.792969 C 175.839844 263.792969 164.84375 261.183594 154.984375 256.535156 C 155.058594 256.460938 155.136719 256.394531 155.210938 256.308594 C 155.707031 255.679688 156.226562 255.070312 156.613281 254.363281 C 156.71875 254.160156 156.804688 253.949219 156.886719 253.742188 C 156.9375 253.765625 156.988281 253.792969 157.039062 253.820312 C 167.382812 240.390625 176.917969 225.773438 188.246094 213.113281 C 187.976562 213.121094 187.710938 213.152344 187.4375 213.152344 C 179.058594 213.152344 171.621094 209.105469 166.921875 202.886719 C 164.160156 210.492188 158.425781 217.648438 154.160156 224.390625 C 150.238281 230.582031 146.5 238.683594 141.167969 243.886719 C 141.253906 243.953125 141.339844 244.011719 141.421875 244.078125 C 140.84375 244.488281 140.414062 245.011719 140.101562 245.585938 C 139.929688 245.765625 139.765625 245.949219 139.589844 246.125 C 139.453125 246.269531 139.347656 246.425781 139.230469 246.574219 C 122.066406 232.566406 111.078125 211.269531 111.078125 187.4375 C 111.078125 183.984375 111.320312 180.59375 111.765625 177.261719 Z M 111.765625 177.261719 " fill-opacity="1" fill-rule="nonzero"/><path fill="#808080" d="M 187.4375 209.816406 C 199.777344 209.816406 209.816406 199.777344 209.816406 187.4375 C 209.816406 175.09375 199.777344 165.054688 187.4375 165.054688 C 175.097656 165.054688 165.054688 175.09375 165.054688 187.4375 C 165.054688 199.777344 175.097656 209.816406 187.4375 209.816406 Z M 179.457031 206.414062 C 175.554688 206.414062 172.378906 203.242188 172.378906 199.335938 C 172.378906 195.433594 175.554688 192.257812 179.457031 192.257812 C 183.359375 192.257812 186.535156 195.433594 186.535156 199.335938 C 186.535156 203.242188 183.359375 206.414062 179.457031 206.414062 Z M 195.757812 206.414062 C 191.855469 206.414062 188.679688 203.242188 188.679688 199.335938 C 188.679688 195.433594 191.855469 192.257812 195.757812 192.257812 C 199.660156 192.257812 202.835938 195.433594 202.835938 199.335938 C 202.835938 203.242188 199.660156 206.414062 195.757812 206.414062 Z M 201.578125 177.902344 C 205.480469 177.902344 208.65625 181.078125 208.65625 184.980469 C 208.65625 188.882812 205.480469 192.058594 201.578125 192.058594 C 197.675781 192.058594 194.5 188.882812 194.5 184.980469 C 194.5 181.078125 197.675781 177.902344 201.578125 177.902344 Z M 188.160156 165.65625 C 192.0625 165.65625 195.238281 168.832031 195.238281 172.730469 C 195.238281 176.632812 192.0625 179.808594 188.160156 179.808594 C 184.257812 179.808594 181.082031 176.632812 181.082031 172.730469 C 181.082031 168.832031 184.257812 165.65625 188.160156 165.65625 Z M 166.359375 184.980469 C 166.359375 181.078125 169.535156 177.902344 173.4375 177.902344 C 177.339844 177.902344 180.511719 181.078125 180.511719 184.980469 C 180.511719 188.882812 177.339844 192.058594 173.4375 192.058594 C 169.535156 192.058594 166.359375 188.882812 166.359375 184.980469 Z M 166.359375 184.980469 " fill-opacity="1" fill-rule="nonzero"/><g clip-path="url(#4ddb3264c6)"><path fill="#000000" d="M 204.570312 67.558594 C 205.476562 67.558594 206.378906 67.570312 207.28125 67.585938 C 200.820312 66.519531 194.195312 65.9375 187.4375 65.9375 C 144.128906 65.9375 106.066406 88.734375 84.546875 122.9375 C 110.304688 89.566406 154.4375 67.558594 204.570312 67.558594 Z M 204.570312 67.558594 " fill-opacity="1" fill-rule="nonzero"/></g><g clip-path="url(#2e0ee05f9b)"><path fill="#000000" d="M 187.4375 308.929688 C 254.429688 308.929688 308.933594 254.429688 308.933594 187.4375 C 308.933594 127.203125 264.863281 77.089844 207.28125 67.585938 C 206.378906 67.570312 205.476562 67.558594 204.570312 67.558594 C 154.4375 67.558594 110.304688 89.566406 84.546875 122.9375 C 72.777344 141.644531 65.9375 163.75 65.9375 187.4375 C 65.9375 254.429688 120.445312 308.929688 187.4375 308.929688 Z M 187.4375 101.753906 C 234.683594 101.753906 273.121094 140.191406 273.121094 187.4375 C 273.121094 234.683594 234.683594 273.121094 187.4375 273.121094 C 140.1875 273.121094 101.753906 234.683594 101.753906 187.4375 C 101.753906 140.191406 140.1875 101.753906 187.4375 101.753906 Z M 187.4375 101.753906 " fill-opacity="1" fill-rule="nonzero"/></g><path fill="#000000" d="M 164.609375 197.570312 C 164.308594 197.515625 164.011719 197.429688 163.714844 197.367188 C 164.402344 199 165.257812 200.546875 166.253906 201.992188 C 166.496094 201.738281 166.722656 201.460938 166.96875 201.214844 C 167.195312 200.992188 167.527344 201.195312 167.433594 201.5 C 167.289062 201.964844 167.09375 202.421875 166.921875 202.886719 C 171.621094 209.105469 179.058594 213.152344 187.4375 213.152344 C 187.710938 213.152344 187.976562 213.121094 188.246094 213.113281 C 188.910156 212.371094 189.558594 211.605469 190.238281 210.878906 C 190.628906 210.460938 191.261719 210.902344 190.960938 211.410156 C 190.898438 211.519531 190.828125 211.621094 190.757812 211.730469 C 191.097656 212.0625 191.417969 212.417969 191.746094 212.761719 C 198.609375 211.597656 204.550781 207.71875 208.421875 202.253906 C 208.296875 202.070312 208.167969 201.886719 208.046875 201.703125 C 207.601562 201.039062 208.632812 200.390625 209.15625 200.925781 C 209.183594 200.953125 209.210938 200.984375 209.238281 201.011719 C 209.589844 200.445312 209.929688 199.875 210.238281 199.28125 C 210.136719 199.304688 210.03125 199.332031 209.929688 199.355469 C 209.449219 199.464844 209.3125 198.769531 209.710938 198.570312 C 210.082031 198.382812 210.46875 198.214844 210.839844 198.03125 C 212.3125 194.796875 213.152344 191.21875 213.152344 187.4375 C 213.152344 183.128906 212.074219 179.074219 210.195312 175.5 C 210.039062 175.527344 209.886719 175.558594 209.730469 175.582031 C 209.140625 175.671875 208.785156 174.757812 209.394531 174.550781 C 209.464844 174.523438 209.539062 174.503906 209.613281 174.480469 C 207.445312 170.785156 204.390625 167.6875 200.734375 165.464844 C 200.632812 165.78125 200.332031 166.039062 199.921875 165.925781 C 199.367188 165.769531 198.945312 165.179688 198.625 164.316406 C 195.238281 162.671875 191.453125 161.71875 187.4375 161.71875 C 184.410156 161.71875 181.511719 162.273438 178.8125 163.238281 C 178.726562 163.800781 178.644531 164.363281 178.53125 164.914062 C 178.238281 166.316406 176.101562 166.660156 175.859375 165.035156 C 175.832031 164.871094 175.828125 164.695312 175.808594 164.53125 C 172.449219 166.242188 169.519531 168.664062 167.210938 171.601562 C 167.425781 171.65625 167.640625 171.699219 167.855469 171.75 C 169.917969 172.25 169.050781 175.433594 167 174.921875 C 166.421875 174.777344 165.832031 174.640625 165.242188 174.5 C 163.015625 178.304688 161.714844 182.71875 161.714844 187.4375 C 161.714844 189.429688 161.964844 191.359375 162.398438 193.21875 C 163.46875 193.742188 164.511719 194.292969 165.496094 194.910156 C 166.648438 195.628906 166.0625 197.839844 164.609375 197.570312 Z M 187.4375 165.054688 C 199.777344 165.054688 209.816406 175.09375 209.816406 187.4375 C 209.816406 199.777344 199.777344 209.816406 187.4375 209.816406 C 175.097656 209.816406 165.054688 199.777344 165.054688 187.4375 C 165.054688 175.09375 175.097656 165.054688 187.4375 165.054688 Z M 187.4375 165.054688 " fill-opacity="1" fill-rule="nonzero"/><path fill="#000000" d="M 189.996094 212.9375 C 189.980469 212.96875 189.957031 212.996094 189.9375 213.027344 C 189.972656 213.023438 190.007812 213.023438 190.039062 213.023438 C 190.027344 212.996094 190.011719 212.96875 189.996094 212.9375 Z M 189.996094 212.9375 " fill-opacity="1" fill-rule="nonzero"/><path fill="#000000" d="M 200.308594 164.652344 C 201.613281 165.019531 201.320312 164.882812 201.132812 162.988281 C 200.691406 158.527344 200.363281 154.042969 200.035156 149.570312 C 199.214844 138.3125 200.554688 126.484375 198.902344 115.320312 C 225.03125 119.457031 246.578125 137.507812 255.71875 161.613281 C 248.871094 162.492188 241.945312 165.261719 235.347656 167.148438 C 226.796875 169.59375 218.019531 171.585938 209.613281 174.480469 C 209.8125 174.816406 210.011719 175.152344 210.195312 175.5 C 217.996094 174.257812 225.640625 171.769531 233.234375 169.644531 C 240.753906 167.53125 249 166.042969 256.261719 163.101562 C 256.289062 163.179688 256.308594 163.257812 256.339844 163.339844 C 256.964844 162.648438 257.78125 162.113281 258.722656 161.769531 C 258.902344 161.703125 259.082031 161.632812 259.261719 161.5625 C 249.6875 135.089844 225.886719 115.371094 197.121094 111.710938 C 197.121094 111.757812 197.132812 111.800781 197.128906 111.847656 C 197.113281 112.257812 197.042969 112.84375 196.972656 113.394531 C 197.03125 113.953125 197.058594 114.511719 197.082031 115.078125 C 197.207031 115.085938 197.328125 115.097656 197.453125 115.117188 C 195.730469 126.335938 197.144531 138.617188 197.710938 149.851562 C 197.785156 151.367188 197.21875 160.519531 198.625 164.316406 C 199.347656 164.667969 200.050781 165.050781 200.734375 165.464844 C 200.832031 165.144531 200.726562 164.769531 200.308594 164.652344 Z M 200.308594 164.652344 " fill-opacity="1" fill-rule="nonzero"/><path fill="#000000" d="M 199.921875 165.925781 C 200.332031 166.039062 200.632812 165.78125 200.734375 165.464844 C 200.050781 165.050781 199.347656 164.667969 198.625 164.316406 C 198.945312 165.179688 199.367188 165.769531 199.921875 165.925781 Z M 199.921875 165.925781 " fill-opacity="1" fill-rule="nonzero"/><path fill="#000000" d="M 209.394531 174.550781 C 208.785156 174.757812 209.140625 175.671875 209.730469 175.582031 C 209.886719 175.558594 210.039062 175.527344 210.195312 175.5 C 210.011719 175.152344 209.8125 174.816406 209.613281 174.480469 C 209.539062 174.503906 209.464844 174.523438 209.394531 174.550781 Z M 209.394531 174.550781 " fill-opacity="1" fill-rule="nonzero"/><path fill="#000000" d="M 139.230469 246.574219 C 139.347656 246.425781 139.453125 246.269531 139.589844 246.125 C 139.765625 245.949219 139.929688 245.765625 140.101562 245.585938 C 140.414062 245.011719 140.84375 244.488281 141.421875 244.078125 C 141.339844 244.011719 141.253906 243.953125 141.167969 243.886719 C 146.5 238.683594 150.238281 230.582031 154.160156 224.390625 C 158.425781 217.648438 164.160156 210.492188 166.921875 202.886719 C 166.699219 202.589844 166.464844 202.300781 166.253906 201.992188 C 161.160156 207.398438 157.710938 214.929688 153.839844 221.191406 C 149.5625 228.105469 143.269531 235.4375 140.164062 243.027344 C 124.421875 229.621094 114.410156 209.683594 114.410156 187.4375 C 114.410156 184.789062 114.570312 182.179688 114.847656 179.601562 C 123.746094 182.65625 132.71875 185.390625 141.519531 188.765625 C 148.671875 191.511719 156.148438 195.75 163.714844 197.367188 C 163.15625 196.039062 162.726562 194.648438 162.398438 193.21875 C 156.976562 190.5625 150.609375 188.910156 145.164062 186.84375 C 135.46875 183.160156 125.40625 179.1875 115.035156 178.035156 C 115.046875 177.9375 115.066406 177.847656 115.082031 177.753906 C 114.90625 177.773438 114.738281 177.808594 114.5625 177.808594 L 114.246094 177.808594 C 113.804688 177.808594 113.375 177.726562 112.964844 177.613281 C 112.742188 177.570312 112.515625 177.535156 112.296875 177.472656 C 112.105469 177.417969 111.941406 177.335938 111.765625 177.261719 C 111.320312 180.59375 111.078125 183.984375 111.078125 187.4375 C 111.078125 211.269531 122.066406 232.566406 139.230469 246.574219 Z M 139.230469 246.574219 " fill-opacity="1" fill-rule="nonzero"/><path fill="#000000" d="M 164.609375 197.570312 C 166.0625 197.839844 166.648438 195.628906 165.496094 194.910156 C 164.511719 194.292969 163.46875 193.742188 162.398438 193.21875 C 162.726562 194.648438 163.15625 196.039062 163.714844 197.367188 C 164.011719 197.429688 164.308594 197.515625 164.609375 197.570312 Z M 164.609375 197.570312 " fill-opacity="1" fill-rule="nonzero"/><path fill="#000000" d="M 166.96875 201.214844 C 166.722656 201.460938 166.496094 201.738281 166.253906 201.992188 C 166.464844 202.300781 166.699219 202.589844 166.921875 202.886719 C 167.09375 202.421875 167.289062 201.964844 167.433594 201.5 C 167.527344 201.195312 167.195312 200.992188 166.96875 201.214844 Z M 166.96875 201.214844 " fill-opacity="1" fill-rule="nonzero"/><path fill="#000000" d="M 219.753906 252.894531 C 210.007812 257.730469 199.035156 260.457031 187.4375 260.457031 C 177.285156 260.457031 167.617188 258.363281 158.816406 254.601562 C 168.796875 240.585938 180.917969 227.671875 189.9375 213.027344 C 189.382812 213.082031 188.8125 213.097656 188.246094 213.113281 C 176.917969 225.773438 167.382812 240.390625 157.039062 253.820312 C 156.988281 253.792969 156.9375 253.765625 156.886719 253.742188 C 156.804688 253.953125 156.71875 254.160156 156.613281 254.363281 C 156.226562 255.070312 155.707031 255.679688 155.210938 256.308594 C 155.136719 256.394531 155.058594 256.460938 154.984375 256.535156 C 164.84375 261.183594 175.839844 263.792969 187.4375 263.792969 C 200.394531 263.792969 212.605469 260.542969 223.308594 254.820312 C 222.617188 253.910156 222.007812 252.976562 221.515625 251.984375 C 221.457031 252.011719 221.40625 252.050781 221.347656 252.078125 C 215.3125 244.824219 209.753906 237.167969 204.230469 229.519531 C 200.222656 223.972656 196.496094 217.753906 191.746094 212.761719 C 191.179688 212.859375 190.617188 212.964844 190.039062 213.023438 C 196.90625 227.492188 209.695312 240.539062 219.753906 252.894531 Z M 219.753906 252.894531 " fill-opacity="1" fill-rule="nonzero"/><path fill="#000000" d="M 190.960938 211.410156 C 191.261719 210.902344 190.628906 210.460938 190.238281 210.878906 C 189.558594 211.605469 188.910156 212.371094 188.246094 213.113281 C 188.8125 213.097656 189.382812 213.082031 189.9375 213.027344 C 189.957031 212.996094 189.980469 212.96875 189.996094 212.9375 C 190.011719 212.96875 190.027344 212.996094 190.039062 213.023438 C 190.617188 212.964844 191.179688 212.859375 191.746094 212.761719 C 191.417969 212.417969 191.097656 212.0625 190.757812 211.730469 C 190.828125 211.621094 190.898438 211.519531 190.960938 211.410156 Z M 190.960938 211.410156 " fill-opacity="1" fill-rule="nonzero"/><path fill="#000000" d="M 260.25 182.121094 C 260.378906 183.878906 260.460938 185.648438 260.460938 187.4375 C 260.460938 208.507812 251.484375 227.503906 237.164062 240.839844 C 228.808594 227.171875 220.453125 212.523438 209.238281 201.011719 C 208.972656 201.433594 208.707031 201.847656 208.421875 202.253906 C 217.078125 215.15625 226.226562 227.667969 234.6875 240.722656 C 234.925781 240.964844 235.140625 241.242188 235.339844 241.550781 C 235.628906 242.007812 235.902344 242.472656 236.164062 242.949219 C 236.886719 243.332031 237.503906 243.90625 237.972656 244.609375 C 253.792969 230.613281 263.796875 210.175781 263.796875 187.4375 C 263.796875 184.765625 263.644531 182.132812 263.375 179.53125 C 262.574219 179.773438 261.765625 179.988281 260.921875 180.113281 C 260.292969 180.203125 259.667969 180.214844 259.066406 180.144531 C 243.023438 185.605469 226.011719 190.5625 210.839844 198.03125 C 210.648438 198.453125 210.453125 198.871094 210.238281 199.28125 C 227.253906 195.445312 243.65625 187.636719 260.25 182.121094 Z M 260.25 182.121094 " fill-opacity="1" fill-rule="nonzero"/><path fill="#000000" d="M 209.15625 200.925781 C 208.632812 200.390625 207.601562 201.039062 208.046875 201.703125 C 208.167969 201.886719 208.296875 202.070312 208.421875 202.253906 C 208.707031 201.847656 208.972656 201.433594 209.238281 201.011719 C 209.210938 200.984375 209.183594 200.953125 209.15625 200.925781 Z M 209.15625 200.925781 " fill-opacity="1" fill-rule="nonzero"/><path fill="#000000" d="M 209.929688 199.355469 C 210.03125 199.332031 210.136719 199.304688 210.238281 199.28125 C 210.453125 198.871094 210.648438 198.453125 210.839844 198.03125 C 210.46875 198.214844 210.082031 198.382812 209.710938 198.570312 C 209.3125 198.769531 209.449219 199.464844 209.929688 199.355469 Z M 209.929688 199.355469 " fill-opacity="1" fill-rule="nonzero"/><path fill="#000000" d="M 148.816406 167.460938 C 139.0625 165.285156 129.667969 161.808594 120.015625 159.433594 C 129.953125 135.601562 152.171875 118.121094 178.726562 114.949219 C 176.289062 123.320312 177.058594 133.148438 176.796875 141.765625 C 176.574219 148.992188 174.859375 157.328125 175.808594 164.53125 C 176.773438 164.035156 177.777344 163.609375 178.8125 163.238281 C 179.71875 157.335938 179.167969 150.863281 179.203125 145 C 179.269531 135.148438 180.640625 124.777344 179.886719 114.972656 C 179.796875 114.269531 179.738281 113.570312 179.738281 112.863281 C 179.738281 112.464844 179.800781 112.074219 179.894531 111.699219 L 179.894531 111.464844 C 150.890625 114.324219 126.605469 133.46875 116.332031 159.601562 C 117.105469 159.640625 117.851562 159.878906 118.566406 160.253906 C 118.910156 160.347656 119.230469 160.476562 119.527344 160.632812 C 119.550781 160.566406 119.574219 160.496094 119.605469 160.429688 C 132.539062 168.679688 150.398438 170.976562 165.242188 174.5 C 165.835938 173.488281 166.492188 172.519531 167.210938 171.601562 C 161.097656 170.140625 154.949219 168.832031 148.816406 167.460938 Z M 148.816406 167.460938 " fill-opacity="1" fill-rule="nonzero"/><path fill="#000000" d="M 167.855469 171.75 C 167.640625 171.699219 167.425781 171.65625 167.210938 171.601562 C 166.492188 172.519531 165.835938 173.488281 165.242188 174.5 C 165.832031 174.640625 166.421875 174.777344 167 174.921875 C 169.050781 175.433594 169.917969 172.25 167.855469 171.75 Z M 167.855469 171.75 " fill-opacity="1" fill-rule="nonzero"/><path fill="#000000" d="M 175.859375 165.035156 C 176.101562 166.660156 178.238281 166.316406 178.53125 164.914062 C 178.644531 164.363281 178.726562 163.800781 178.8125 163.238281 C 177.777344 163.609375 176.773438 164.035156 175.808594 164.53125 C 175.828125 164.695312 175.832031 164.871094 175.859375 165.035156 Z M 175.859375 165.035156 " fill-opacity="1" fill-rule="nonzero"/><path fill="#000000" d="M 188.160156 179.808594 C 192.0625 179.808594 195.238281 176.632812 195.238281 172.730469 C 195.238281 168.832031 192.0625 165.65625 188.160156 165.65625 C 184.257812 165.65625 181.082031 168.832031 181.082031 172.730469 C 181.082031 176.632812 184.257812 179.808594 188.160156 179.808594 Z M 188.160156 167.660156 C 190.953125 167.660156 193.234375 169.9375 193.234375 172.730469 C 193.234375 175.527344 190.953125 177.808594 188.160156 177.808594 C 185.363281 177.808594 183.085938 175.527344 183.085938 172.730469 C 183.085938 169.9375 185.363281 167.660156 188.160156 167.660156 Z M 188.160156 167.660156 " fill-opacity="1" fill-rule="nonzero"/><path fill="#000000" d="M 180.511719 184.980469 C 180.511719 181.078125 177.339844 177.902344 173.4375 177.902344 C 169.535156 177.902344 166.359375 181.078125 166.359375 184.980469 C 166.359375 188.882812 169.535156 192.058594 173.4375 192.058594 C 177.339844 192.058594 180.511719 188.882812 180.511719 184.980469 Z M 168.363281 184.980469 C 168.363281 182.183594 170.640625 179.90625 173.4375 179.90625 C 176.234375 179.90625 178.511719 182.183594 178.511719 184.980469 C 178.511719 187.777344 176.234375 190.054688 173.4375 190.054688 C 170.640625 190.054688 168.363281 187.777344 168.363281 184.980469 Z M 168.363281 184.980469 " fill-opacity="1" fill-rule="nonzero"/><path fill="#000000" d="M 201.578125 192.058594 C 205.480469 192.058594 208.65625 188.882812 208.65625 184.980469 C 208.65625 181.078125 205.480469 177.902344 201.578125 177.902344 C 197.675781 177.902344 194.5 181.078125 194.5 184.980469 C 194.5 188.882812 197.675781 192.058594 201.578125 192.058594 Z M 201.578125 179.90625 C 204.375 179.90625 206.652344 182.183594 206.652344 184.980469 C 206.652344 187.777344 204.375 190.054688 201.578125 190.054688 C 198.78125 190.054688 196.503906 187.777344 196.503906 184.980469 C 196.503906 182.183594 198.78125 179.90625 201.578125 179.90625 Z M 201.578125 179.90625 " fill-opacity="1" fill-rule="nonzero"/><path fill="#000000" d="M 195.757812 192.257812 C 191.855469 192.257812 188.679688 195.433594 188.679688 199.335938 C 188.679688 203.242188 191.855469 206.414062 195.757812 206.414062 C 199.660156 206.414062 202.835938 203.242188 202.835938 199.335938 C 202.835938 195.433594 199.660156 192.257812 195.757812 192.257812 Z M 195.757812 204.410156 C 192.960938 204.410156 190.683594 202.136719 190.683594 199.335938 C 190.683594 196.539062 192.960938 194.261719 195.757812 194.261719 C 198.554688 194.261719 200.832031 196.539062 200.832031 199.335938 C 200.832031 202.136719 198.554688 204.410156 195.757812 204.410156 Z M 195.757812 204.410156 " fill-opacity="1" fill-rule="nonzero"/><path fill="#000000" d="M 179.457031 192.257812 C 175.554688 192.257812 172.378906 195.433594 172.378906 199.335938 C 172.378906 203.242188 175.554688 206.414062 179.457031 206.414062 C 183.359375 206.414062 186.535156 203.242188 186.535156 199.335938 C 186.535156 195.433594 183.359375 192.257812 179.457031 192.257812 Z M 179.457031 204.410156 C 176.660156 204.410156 174.382812 202.136719 174.382812 199.335938 C 174.382812 196.539062 176.660156 194.261719 179.457031 194.261719 C 182.253906 194.261719 184.527344 196.539062 184.527344 199.335938 C 184.527344 202.136719 182.253906 204.410156 179.457031 204.410156 Z M 179.457031 204.410156 " fill-opacity="1" fill-rule="nonzero"/><g clip-path="url(#1dbc06a750)"><g clip-path="url(#f49cbb3bdd)"><g clip-path="url(#0a65a23fa2)"><g clip-path="url(#1f750e31ab)"><path fill="#be1931" d="M 165.71875 256.371094 C 151.929688 254.558594 142.222656 241.925781 144.03125 228.148438 L 148.402344 194.890625 C 150.214844 181.113281 162.855469 171.414062 176.644531 173.226562 C 181.667969 173.835938 227.664062 171.472656 232.035156 138.214844 C 234.222656 121.585938 219.765625 102.769531 194.800781 99.488281 C 174.488281 96.820312 159.332031 111.742188 158.238281 120.058594 C 156.425781 133.835938 143.785156 143.53125 129.996094 141.722656 C 116.207031 139.910156 106.5 127.273438 108.308594 113.496094 C 113.640625 72.9375 156.253906 43.675781 201.355469 49.601562 C 267.925781 58.351562 286.355469 111.367188 280.871094 153.089844 C 276.34375 187.554688 253.933594 211.40625 217.761719 220.242188 C 209.886719 222.179688 202.222656 223.167969 195.417969 223.625 L 193.960938 234.710938 C 192.148438 248.484375 179.507812 258.183594 165.71875 256.371094 Z M 165.71875 256.371094 " fill-opacity="1" fill-rule="nonzero"/></g></g></g></g><g clip-path="url(#5dbf10b3c9)"><g clip-path="url(#58bcb85173)"><g clip-path="url(#74316398f1)"><g clip-path="url(#4b0a045e49)"><path fill="#be1931" d="M 185.21875 301.226562 C 185.109375 302.042969 184.964844 302.851562 184.777344 303.65625 C 184.589844 304.457031 184.363281 305.25 184.097656 306.027344 C 183.832031 306.808594 183.53125 307.574219 183.191406 308.324219 C 182.851562 309.074219 182.476562 309.808594 182.0625 310.519531 C 181.652344 311.234375 181.203125 311.925781 180.726562 312.597656 C 180.246094 313.265625 179.734375 313.910156 179.191406 314.53125 C 178.644531 315.148438 178.074219 315.742188 177.472656 316.304688 C 176.871094 316.867188 176.242188 317.402344 175.589844 317.902344 C 174.933594 318.402344 174.257812 318.871094 173.558594 319.308594 C 172.855469 319.742188 172.136719 320.144531 171.398438 320.507812 C 170.65625 320.871094 169.902344 321.199219 169.128906 321.488281 C 168.359375 321.78125 167.574219 322.03125 166.777344 322.246094 C 165.980469 322.457031 165.175781 322.632812 164.363281 322.765625 C 163.550781 322.902344 162.730469 322.996094 161.910156 323.050781 C 161.085938 323.101562 160.261719 323.117188 159.4375 323.089844 C 158.613281 323.0625 157.792969 322.996094 156.976562 322.886719 C 156.160156 322.78125 155.347656 322.632812 154.542969 322.445312 C 153.742188 322.257812 152.949219 322.035156 152.167969 321.769531 C 151.386719 321.503906 150.621094 321.203125 149.871094 320.863281 C 149.121094 320.523438 148.386719 320.144531 147.671875 319.734375 C 146.957031 319.320312 146.265625 318.875 145.59375 318.394531 C 144.925781 317.917969 144.28125 317.40625 143.660156 316.863281 C 143.039062 316.320312 142.445312 315.746094 141.882812 315.144531 C 141.320312 314.542969 140.785156 313.917969 140.285156 313.261719 C 139.78125 312.609375 139.3125 311.933594 138.878906 311.234375 C 138.441406 310.53125 138.042969 309.8125 137.675781 309.074219 C 137.3125 308.335938 136.984375 307.582031 136.691406 306.808594 C 136.402344 306.039062 136.148438 305.253906 135.9375 304.460938 C 135.722656 303.664062 135.546875 302.859375 135.414062 302.046875 C 135.277344 301.234375 135.183594 300.414062 135.128906 299.59375 C 135.074219 298.769531 135.0625 297.949219 135.089844 297.125 C 135.117188 296.300781 135.183594 295.480469 135.289062 294.664062 C 135.398438 293.847656 135.542969 293.039062 135.730469 292.234375 C 135.917969 291.433594 136.144531 290.640625 136.410156 289.859375 C 136.675781 289.082031 136.976562 288.316406 137.316406 287.5625 C 137.65625 286.8125 138.03125 286.082031 138.445312 285.367188 C 138.855469 284.65625 139.304688 283.960938 139.78125 283.292969 C 140.261719 282.621094 140.773438 281.976562 141.320312 281.359375 C 141.863281 280.738281 142.433594 280.148438 143.035156 279.585938 C 143.636719 279.019531 144.265625 278.488281 144.921875 277.988281 C 145.574219 277.484375 146.25 277.015625 146.953125 276.582031 C 147.652344 276.144531 148.371094 275.746094 149.109375 275.382812 C 149.851562 275.015625 150.605469 274.691406 151.378906 274.398438 C 152.148438 274.109375 152.933594 273.859375 153.730469 273.644531 C 154.527344 273.429688 155.332031 273.257812 156.144531 273.121094 C 156.957031 272.988281 157.777344 272.894531 158.597656 272.839844 C 159.421875 272.785156 160.246094 272.773438 161.070312 272.800781 C 161.894531 272.828125 162.714844 272.894531 163.53125 273 C 164.351562 273.109375 165.160156 273.253906 165.964844 273.441406 C 166.765625 273.628906 167.558594 273.855469 168.339844 274.121094 C 169.121094 274.386719 169.886719 274.6875 170.636719 275.027344 C 171.390625 275.367188 172.121094 275.742188 172.835938 276.15625 C 173.550781 276.566406 174.242188 277.011719 174.914062 277.492188 C 175.582031 277.972656 176.230469 278.484375 176.847656 279.027344 C 177.46875 279.570312 178.0625 280.144531 178.625 280.746094 C 179.1875 281.34375 179.722656 281.972656 180.222656 282.625 C 180.726562 283.28125 181.195312 283.957031 181.632812 284.65625 C 182.066406 285.355469 182.46875 286.074219 182.832031 286.816406 C 183.195312 287.554688 183.523438 288.308594 183.816406 289.078125 C 184.105469 289.851562 184.359375 290.632812 184.570312 291.429688 C 184.785156 292.226562 184.960938 293.03125 185.09375 293.84375 C 185.230469 294.65625 185.324219 295.472656 185.378906 296.296875 C 185.433594 297.117188 185.445312 297.941406 185.417969 298.765625 C 185.390625 299.589844 185.324219 300.410156 185.21875 301.226562 Z M 185.21875 301.226562 " fill-opacity="1" fill-rule="nonzero"/></g></g></g></g></svg>